<?xml version="1.0" encoding="UTF-8"?>
<svg version="1.1" xmlns="http://www.w3.org/2000/svg" width="430" height="122">
<path d="M0 0 C141.9 0 283.8 0 430 0 C430 40.26 430 80.52 430 122 C288.1 122 146.2 122 0 122 C0 81.74 0 41.48 0 0 Z " fill="#FDFCFC" transform="translate(0,0)"/>
<path d="M0 0 C1.24458984 0.00064453 2.48917969 0.00128906 3.77148438 0.00195312 C5.72344727 0.02612305 5.72344727 0.02612305 7.71484375 0.05078125 C9.02001953 0.04755859 10.32519531 0.04433594 11.66992188 0.04101562 C21.38548048 0.09641798 21.38548048 0.09641798 23.65234375 2.36328125 C23.86352539 5.11303711 23.86352539 5.11303711 23.8125 8.578125 C23.79606445 10.44307617 23.79606445 10.44307617 23.77929688 12.34570312 C23.75802734 13.65087891 23.73675781 14.95605469 23.71484375 16.30078125 C23.6804544 18.87234027 23.65030379 21.44396053 23.625 24.015625 C23.60703369 25.16023193 23.58906738 26.30483887 23.57055664 27.48413086 C23.51550359 30.43469772 23.51550359 30.43469772 24.65234375 33.36328125 C24.81089844 32.615625 24.96945312 31.86796875 25.1328125 31.09765625 C27.03716186 23.05940813 27.03716186 23.05940813 30.02734375 19.67578125 C32.85097416 18.26396604 34.54016132 18.00760326 37.65234375 18.36328125 C37.65234375 19.02328125 37.65234375 19.68328125 37.65234375 20.36328125 C36.72421875 20.50765625 35.79609375 20.65203125 34.83984375 20.80078125 C31.62937315 21.99104473 31.62937315 21.99104473 30.69140625 24.1484375 C29.90853107 26.53494408 29.26752708 28.92818057 28.65234375 31.36328125 C28.09628362 33.21938938 27.53392743 35.07362466 26.96484375 36.92578125 C26.52594471 38.4045334 26.08792291 39.8835478 25.65234375 41.36328125 C26.86921875 41.28078125 28.08609375 41.19828125 29.33984375 41.11328125 C32.81873901 41.08856441 33.59067039 41.32216568 36.65234375 43.36328125 C37.31234375 44.02328125 37.97234375 44.68328125 38.65234375 45.36328125 C38.98234375 45.03328125 39.31234375 44.70328125 39.65234375 44.36328125 C39.32234375 43.70328125 38.99234375 43.04328125 38.65234375 42.36328125 C41.28744518 42.72674352 42.43366516 43.13259882 44.2890625 45.08984375 C45.94039375 47.84363971 45.87931904 49.32008449 45.65234375 52.48828125 C45.40154559 55.05676533 45.40154559 55.05676533 45.65234375 57.36328125 C47.13734375 58.35328125 47.13734375 58.35328125 48.65234375 59.36328125 C49.26831055 61.8659668 49.26831055 61.8659668 49.6015625 65 C49.79008789 66.7025293 49.79008789 66.7025293 49.98242188 68.43945312 C50.1593457 70.22706055 50.1593457 70.22706055 50.33984375 72.05078125 C50.46939453 73.22318359 50.59894531 74.39558594 50.73242188 75.60351562 C51.94035173 86.92226571 51.94035173 86.92226571 51.65234375 92.36328125 C51.32234375 92.69328125 50.99234375 93.02328125 50.65234375 93.36328125 C48.31901042 93.36328125 45.98567708 93.36328125 43.65234375 93.36328125 C43.32234375 93.69328125 42.99234375 94.02328125 42.65234375 94.36328125 C41.3219075 94.46165335 39.98641031 94.49406717 38.65234375 94.49609375 C37.84796875 94.49738281 37.04359375 94.49867187 36.21484375 94.5 C35.36921875 94.49613281 34.52359375 94.49226563 33.65234375 94.48828125 C32.80671875 94.49214844 31.96109375 94.49601562 31.08984375 94.5 C30.28546875 94.49871094 29.48109375 94.49742188 28.65234375 94.49609375 C27.90984375 94.49496582 27.16734375 94.49383789 26.40234375 94.49267578 C24.65234375 94.36328125 24.65234375 94.36328125 23.65234375 93.36328125 C22.99234375 94.35328125 22.33234375 95.34328125 21.65234375 96.36328125 C19.31396484 96.70385742 19.31396484 96.70385742 16.42578125 96.65625 C15.39453125 96.64658203 14.36328125 96.63691406 13.30078125 96.62695312 C11.68042969 96.58924805 11.68042969 96.58924805 10.02734375 96.55078125 C8.939375 96.53724609 7.85140625 96.52371094 6.73046875 96.50976562 C4.03755084 96.47433249 1.34488634 96.42052428 -1.34765625 96.36328125 C-1.34765625 90.42328125 -1.34765625 84.48328125 -1.34765625 78.36328125 C-2.33765625 77.86828125 -2.33765625 77.86828125 -3.34765625 77.36328125 C-3.34765625 83.63328125 -3.34765625 89.90328125 -3.34765625 96.36328125 C-13.40625 96.4609375 -13.40625 96.4609375 -16.34765625 96.36328125 C-17.34765625 95.36328125 -17.34765625 95.36328125 -17.4453125 93.61328125 C-17.43371094 92.87078125 -17.42210937 92.12828125 -17.41015625 91.36328125 C-17.40242188 90.55890625 -17.3946875 89.75453125 -17.38671875 88.92578125 C-17.36067708 87.21744792 -17.33463542 85.50911458 -17.30859375 83.80078125 C-17.30085938 82.99640625 -17.293125 82.19203125 -17.28515625 81.36328125 C-17.27355469 80.62078125 -17.26195312 79.87828125 -17.25 79.11328125 C-17.1542285 77.33450547 -17.1542285 77.33450547 -18.34765625 76.36328125 C-18.38858562 74.03030692 -18.39007348 71.696229 -18.34765625 69.36328125 C-19.00765625 69.36328125 -19.66765625 69.36328125 -20.34765625 69.36328125 C-20.34765625 70.68328125 -20.34765625 72.00328125 -20.34765625 73.36328125 C-22.98765625 73.36328125 -25.62765625 73.36328125 -28.34765625 73.36328125 C-26.47265625 69.48828125 -26.47265625 69.48828125 -25.34765625 68.36328125 C-26.00765625 68.03328125 -26.66765625 67.70328125 -27.34765625 67.36328125 C-28.07286317 65.21537303 -28.68976141 63.03064768 -29.2578125 60.8359375 C-29.51636269 59.84151894 -29.51636269 59.84151894 -29.78013611 58.82701111 C-30.14460755 57.41654289 -30.50496697 56.0050068 -30.86157227 54.5925293 C-31.40077626 52.46282949 -31.95611488 50.33784907 -32.51367188 48.21289062 C-34.22182825 41.59501314 -35.7595862 35.1400725 -36.07202148 28.27905273 C-36.25429723 26.0368862 -36.25429723 26.0368862 -38.34765625 23.36328125 C-38.45662976 20.08933791 -37.91005127 18.08282432 -35.88330078 15.48974609 C-33.95185286 13.43863738 -31.9563111 11.4873544 -29.91015625 9.55078125 C-29.21599609 8.87080078 -28.52183594 8.19082031 -27.80664062 7.49023438 C-21.64124135 1.50388833 -21.64124135 1.50388833 -17.47265625 1.05078125 C-14.34765625 1.36328125 -14.34765625 1.36328125 -11.97265625 2.86328125 C-9.61152427 6.49579199 -10.06221845 9.08171422 -10.34765625 13.36328125 C-11.00765625 13.36328125 -11.66765625 13.36328125 -12.34765625 13.36328125 C-12.67765625 12.70328125 -13.00765625 12.04328125 -13.34765625 11.36328125 C-17.19802487 10.90123702 -20.76735163 10.53002972 -24.28125 12.3828125 C-26.81714675 14.59031974 -28.15046554 16.31870341 -28.78125 19.66015625 C-28.89716158 23.83297324 -28.71821549 25.8074424 -26.34765625 29.36328125 C-26.48945313 28.72261719 -26.63125 28.08195312 -26.77734375 27.421875 C-27.93116548 20.63052077 -27.93116548 20.63052077 -26.32421875 17.140625 C-23.65495547 13.70165353 -22.07535028 12.50129219 -17.72265625 11.67578125 C-13.8942357 12.4556447 -12.5628459 13.17340815 -10.34765625 16.36328125 C-10.34765625 17.68328125 -10.34765625 19.00328125 -10.34765625 20.36328125 C-10.31027344 19.17089844 -10.27289063 17.97851562 -10.234375 16.75 C-10.16871593 15.18356225 -10.10226857 13.61715741 -10.03515625 12.05078125 C-10.01259766 11.26509766 -9.99003906 10.47941406 -9.96679688 9.66992188 C-9.93134766 8.91259766 -9.89589844 8.15527344 -9.859375 7.375 C-9.83319092 6.67850342 -9.80700684 5.98200684 -9.7800293 5.2644043 C-8.56342554 -0.08494268 -4.84847493 -0.01262713 0 0 Z " fill="#3E3342" transform="translate(371.34765625,18.63671875)"/>
<path d="M0 0 C5.94 0 11.88 0 18 0 C20.28228681 4.66136704 22.56215846 9.32375712 24.8359375 13.98925781 C25.6105683 15.57686105 26.38660544 17.16377888 27.1640625 18.75 C28.27972761 21.02686758 29.39035276 23.30613225 30.5 25.5859375 C30.84998047 26.29744965 31.19996094 27.00896179 31.56054688 27.74203491 C34 32.77225659 34 32.77225659 34 35 C34.66 35 35.32 35 36 35 C35.97679687 34.34257813 35.95359375 33.68515625 35.9296875 33.0078125 C35.75043864 23.55883708 36.83552256 14.35740802 38 5 C36.68 5 35.36 5 34 5 C34 3.35 34 1.7 34 0 C40.6 0 47.2 0 54 0 C53.67 1.65 53.34 3.3 53 5 C52.360625 5.268125 51.72125 5.53625 51.0625 5.8125 C48.58890511 6.92160869 48.58890511 6.92160869 47.96533203 10.47851562 C46.90735902 15.12836591 46.17639675 19.81409822 45.4921875 24.53125 C45.36184113 25.40777222 45.23149475 26.28429443 45.09719849 27.18737793 C44.68608725 29.95771792 44.28045518 32.72882717 43.875 35.5 C43.59541539 37.39067876 43.31547096 39.28130435 43.03515625 41.171875 C42.35261039 45.78064587 41.67497362 50.39011431 41 55 C36.545 55.495 36.545 55.495 32 56 C31.34197388 54.63065308 31.34197388 54.63065308 30.6706543 53.23364258 C29.03489282 49.83126891 27.39596642 46.43042782 25.75610352 43.0300293 C25.04821409 41.56104149 24.34117158 40.09164524 23.63500977 38.62182617 C22.61699861 36.50330119 21.59590186 34.38628736 20.57421875 32.26953125 C20.26159592 31.61725052 19.94897308 30.96496979 19.62687683 30.29292297 C18.2788066 27.50650399 16.88764214 24.81553829 15.27661133 22.1706543 C14 20 14 20 14 18 C13.34 18 12.68 18 12 18 C11.90912109 19.48886719 11.90912109 19.48886719 11.81640625 21.0078125 C11.26272174 30.00936342 10.66052936 39.00555764 10 48 C11.65 48.33 13.3 48.66 15 49 C14.67 50.65 14.34 52.3 14 54 C7.4 54 0.8 54 -6 54 C-5.67 52.35 -5.34 50.7 -5 49 C-3 47.8125 -3 47.8125 -1 47 C0.27936878 44.44126245 0.51670374 42.11966243 0.9375 39.28515625 C1.11023438 38.12306641 1.28296875 36.96097656 1.4609375 35.76367188 C1.63882813 34.54228516 1.81671875 33.32089844 2 32.0625 C2.17789063 30.87591797 2.35578125 29.68933594 2.5390625 28.46679688 C3.59035798 21.32347943 4.44107735 14.19888699 5 7 C2.525 6.01 2.525 6.01 0 5 C0 3.35 0 1.7 0 0 Z " fill="#FD5C5C" transform="translate(179,46)"/>
<path d="M0 0 C1.24458984 0.00064453 2.48917969 0.00128906 3.77148438 0.00195312 C5.72344727 0.02612305 5.72344727 0.02612305 7.71484375 0.05078125 C9.02001953 0.04755859 10.32519531 0.04433594 11.66992188 0.04101562 C21.38548048 0.09641798 21.38548048 0.09641798 23.65234375 2.36328125 C23.87939453 5.06884766 23.87939453 5.06884766 23.84765625 8.46484375 C23.84121094 9.6765625 23.83476562 10.88828125 23.828125 12.13671875 C23.81136719 13.40773438 23.79460937 14.67875 23.77734375 15.98828125 C23.76832031 17.26703125 23.75929688 18.54578125 23.75 19.86328125 C23.72636678 23.03013292 23.69342004 26.19661549 23.65234375 29.36328125 C17.37330847 30.45579451 11.17645185 30.58115667 4.8125 30.6796875 C3.69040634 30.7004686 2.56831268 30.72124969 1.41221619 30.74266052 C-2.1535155 30.80776755 -5.71931752 30.86685966 -9.28515625 30.92578125 C-11.71029358 30.96900344 -14.13542393 31.01261889 -16.56054688 31.05664062 C-22.48951013 31.16340889 -28.41854252 31.26524573 -34.34765625 31.36328125 C-35.01625392 30.09605173 -35.67693123 28.82464123 -36.33422852 27.55151367 C-36.70298599 26.84395432 -37.07174347 26.13639496 -37.45167542 25.40739441 C-38.34765625 23.36328125 -38.34765625 23.36328125 -38.5625 20.3515625 C-36.70208745 15.77530654 -33.45751925 12.90816543 -29.91015625 9.55078125 C-29.21599609 8.87080078 -28.52183594 8.19082031 -27.80664062 7.49023438 C-21.64124135 1.50388833 -21.64124135 1.50388833 -17.47265625 1.05078125 C-14.34765625 1.36328125 -14.34765625 1.36328125 -11.97265625 2.86328125 C-9.61152427 6.49579199 -10.06221845 9.08171422 -10.34765625 13.36328125 C-11.00765625 13.36328125 -11.66765625 13.36328125 -12.34765625 13.36328125 C-12.67765625 12.70328125 -13.00765625 12.04328125 -13.34765625 11.36328125 C-17.19802487 10.90123702 -20.76735163 10.53002972 -24.28125 12.3828125 C-26.81714675 14.59031974 -28.15046554 16.31870341 -28.78125 19.66015625 C-28.89716158 23.83297324 -28.71821549 25.8074424 -26.34765625 29.36328125 C-26.48945313 28.72261719 -26.63125 28.08195312 -26.77734375 27.421875 C-27.93116548 20.63052077 -27.93116548 20.63052077 -26.32421875 17.140625 C-23.65495547 13.70165353 -22.07535028 12.50129219 -17.72265625 11.67578125 C-13.8942357 12.4556447 -12.5628459 13.17340815 -10.34765625 16.36328125 C-10.34765625 17.68328125 -10.34765625 19.00328125 -10.34765625 20.36328125 C-10.31027344 19.17089844 -10.27289063 17.97851562 -10.234375 16.75 C-10.16871593 15.18356225 -10.10226857 13.61715741 -10.03515625 12.05078125 C-10.01259766 11.26509766 -9.99003906 10.47941406 -9.96679688 9.66992188 C-9.93134766 8.91259766 -9.89589844 8.15527344 -9.859375 7.375 C-9.83319092 6.67850342 -9.80700684 5.98200684 -9.7800293 5.2644043 C-8.56342554 -0.08494268 -4.84847493 -0.01262713 0 0 Z " fill="#D4D2D5" transform="translate(371.34765625,18.63671875)"/>
<path d="M0 0 C6.6 0 13.2 0 20 0 C20.62741754 5.01934034 21.14796986 9.68253292 21.31640625 14.6875 C21.35830078 15.87988281 21.40019531 17.07226562 21.44335938 18.30078125 C21.48267578 19.52152344 21.52199219 20.74226563 21.5625 22 C21.60568359 23.25167969 21.64886719 24.50335938 21.69335938 25.79296875 C21.79878017 28.86188523 21.90090342 31.93087389 22 35 C20.72382813 34.96519531 19.44765625 34.93039063 18.1328125 34.89453125 C16.46355479 34.86639769 14.7942829 34.83909707 13.125 34.8125 C12.28324219 34.78736328 11.44148438 34.76222656 10.57421875 34.73632812 C9.76855469 34.72666016 8.96289062 34.71699219 8.1328125 34.70703125 C7.01737061 34.68346558 7.01737061 34.68346558 5.87939453 34.65942383 C5.25919434 34.77181396 4.63899414 34.8842041 4 35 C3.34 35.99 2.68 36.98 2 38 C-0.33837891 38.34057617 -0.33837891 38.34057617 -3.2265625 38.29296875 C-4.2578125 38.28330078 -5.2890625 38.27363281 -6.3515625 38.26367188 C-7.43179687 38.23853516 -8.51203125 38.21339844 -9.625 38.1875 C-10.71296875 38.17396484 -11.8009375 38.16042969 -12.921875 38.14648438 C-15.61479291 38.11105124 -18.30745741 38.05724303 -21 38 C-21 32.06 -21 26.12 -21 20 C-21.66 19.67 -22.32 19.34 -23 19 C-23 25.27 -23 31.54 -23 38 C-33.05859375 38.09765625 -33.05859375 38.09765625 -36 38 C-37 37 -37 37 -37.11352539 35.14233398 C-37.10828857 34.35157471 -37.10305176 33.56081543 -37.09765625 32.74609375 C-37.09443359 31.89208984 -37.09121094 31.03808594 -37.08789062 30.15820312 C-37.07951172 29.26037109 -37.07113281 28.36253906 -37.0625 27.4375 C-37.05798828 26.53580078 -37.05347656 25.63410156 -37.04882812 24.70507812 C-37.03700244 22.47002411 -37.01906638 20.23500398 -37 18 C-32.38 18 -27.76 18 -23 18 C-23 14.37 -23 10.74 -23 7 C-22.67 7 -22.34 7 -22 7 C-22 10.63 -22 14.26 -22 18 C-19.03 18 -16.06 18 -13 18 C-13 14.37 -13 10.74 -13 7 C-13.66 6.67 -14.32 6.34 -15 6 C-13.25034642 5.94570041 -11.50020213 5.90707177 -9.75 5.875 C-8.77546875 5.85179688 -7.8009375 5.82859375 -6.796875 5.8046875 C-4 6 -4 6 0 8 C-3.63 8 -7.26 8 -11 8 C-11 11.3 -11 14.6 -11 18 C-6.38 18 -1.76 18 3 18 C2.8453125 15.8653125 2.8453125 15.8653125 2.6875 13.6875 C2.62949219 12.88699219 2.57148438 12.08648437 2.51171875 11.26171875 C2.21089372 8.90764481 2.21089372 8.90764481 0.39453125 7.58203125 C-0.06566406 7.05996094 -0.52585937 6.53789063 -1 6 C-0.67 4.02 -0.34 2.04 0 0 Z " fill="#F5F4F5" transform="translate(391,77)"/>
<path d="M0 0 C3.14801455 1.15641351 5.13395724 2.34436878 7.140625 5.07421875 C10.10063278 11.65898181 8.4463577 18.95993493 6 25.4375 C2.97837676 31.98721174 -1.14424552 37.30440896 -7.9375 40.125 C-11.96747305 40.34089141 -15.00407414 40.10835646 -18.9375 39.125 C-19.2675 43.745 -19.5975 48.365 -19.9375 53.125 C-17.9575 53.455 -15.9775 53.785 -13.9375 54.125 C-13.9375 55.775 -13.9375 57.425 -13.9375 59.125 C-20.5375 59.125 -27.1375 59.125 -33.9375 59.125 C-33.9375 57.475 -33.9375 55.825 -33.9375 54.125 C-32.4525 53.63 -32.4525 53.63 -30.9375 53.125 C-27.81666622 44.43330759 -26.99891437 34.67422935 -25.75 25.5625 C-25.57275391 24.31919922 -25.39550781 23.07589844 -25.21289062 21.79492188 C-24.2525729 14.98526478 -24.2525729 14.98526478 -23.9375 8.125 C-25.5875 7.795 -27.2375 7.465 -28.9375 7.125 C-28.9375 5.475 -28.9375 3.825 -28.9375 2.125 C-23.27107449 0.89982692 -17.70041482 1.03271133 -11.9375 1.125 C-12.081875 1.88425781 -12.22625 2.64351562 -12.375 3.42578125 C-12.560625 4.41964844 -12.74625 5.41351563 -12.9375 6.4375 C-13.123125 7.42363281 -13.30875 8.40976563 -13.5 9.42578125 C-14.01749796 12.16281805 -14.01749796 12.16281805 -13.9375 15.125 C-13.47859375 14.37734375 -13.0196875 13.6296875 -12.546875 12.859375 C-11.62648437 11.38210937 -11.62648437 11.38210937 -10.6875 9.875 C-10.08421875 8.90046875 -9.4809375 7.9259375 -8.859375 6.921875 C-4.22659024 0.1798549 -4.22659024 0.1798549 0 0 Z " fill="#FE5E5E" transform="translate(162.9375,59.875)"/>
<path d="M0 0 C1.94326172 -0.02126953 1.94326172 -0.02126953 3.92578125 -0.04296875 C7.5537588 0.17930609 10.3207728 0.86690778 13.6875 2.1875 C13.26660004 7.79211531 12.77136889 12.90836547 10.6875 18.1875 C8.7075 18.1875 6.7275 18.1875 4.6875 18.1875 C4.45963542 16.13671875 4.23177083 14.0859375 4.00390625 12.03515625 C3.86863386 10.17609771 3.86863386 10.17609771 2.6875 9.1875 C0.4252642 8.94903097 0.4252642 8.94903097 -2.1875 8.9375 C-3.07179688 8.91171875 -3.95609375 8.8859375 -4.8671875 8.859375 C-7.32988685 9.00913029 -7.32988685 9.00913029 -9.1328125 10.390625 C-10.75624957 12.86340994 -10.81618189 14.28792587 -10.3125 17.1875 C-8.67072101 18.88977748 -8.67072101 18.88977748 -6.375 20.125 C-5.55902344 20.62644531 -4.74304688 21.12789062 -3.90234375 21.64453125 C-3.04769531 22.15371094 -2.19304688 22.66289063 -1.3125 23.1875 C0.32013508 24.21715875 1.94552791 25.25841475 3.5625 26.3125 C4.28179687 26.76882812 5.00109375 27.22515625 5.7421875 27.6953125 C8.68001536 29.94882704 10.44338691 31.85477449 11.12109375 35.5546875 C11.1321607 42.65967102 9.58074055 46.20916414 4.5625 51.375 C-2.34231215 55.72803374 -10.24270357 57.1818825 -18.3125 56.1875 C-21.40382277 55.38825756 -24.35503749 54.38762971 -27.3125 53.1875 C-26.81380596 47.81858121 -26.29022468 42.49514827 -25.3125 37.1875 C-23.0025 37.1875 -20.6925 37.1875 -18.3125 37.1875 C-17.6525 40.4875 -16.9925 43.7875 -16.3125 47.1875 C-14.54242286 47.26864106 -12.77127902 47.32675505 -11 47.375 C-10.01386719 47.40980469 -9.02773438 47.44460937 -8.01171875 47.48046875 C-5.29787252 47.41785856 -5.29787252 47.41785856 -3.4921875 45.82421875 C-2.1521446 44.18470697 -2.1521446 44.18470697 -1.75 41.8125 C-2.5929575 37.87869832 -5.11548382 36.30835522 -8.3125 34.1875 C-10.01531281 33.17812826 -11.7239877 32.17859957 -13.4375 31.1875 C-20.45163979 26.99380497 -20.45163979 26.99380497 -22.3125 23.1875 C-23.06518835 17.96672549 -22.96695473 13.66002314 -20.8125 8.8125 C-14.73872715 2.4350385 -8.75030802 0.04327551 0 0 Z " fill="#FE5E5E" transform="translate(37.3125,44.8125)"/>
<path d="M0 0 C1.11677379 3.35032138 0.86464943 4.47136088 0.07421875 7.83203125 C-0.14468018 8.78972412 -0.3635791 9.74741699 -0.58911133 10.73413086 C-0.82782959 11.74999268 -1.06654785 12.76585449 -1.3125 13.8125 C-3.29123979 22.52045258 -4.96921495 31.12294073 -6 40 C-5.64808594 39.28714844 -5.29617187 38.57429688 -4.93359375 37.83984375 C1.3320615 25.68479974 1.3320615 25.68479974 7 22 C10.1875 21.75 10.1875 21.75 13 23 C15.75734089 25.53965609 16.91759051 26.99545676 17.2265625 30.76171875 C16.97673114 34.33258425 16.14250904 37.23714333 15 40.625 C13.72402329 44.42634728 13 46.95441064 13 51 C13.66 50.34 14.32 49.68 15 49 C17.125 49.375 17.125 49.375 19 50 C18.65598287 52.94399274 18.02683744 53.97321226 15.890625 56.10546875 C15.01921875 56.79253906 14.1478125 57.47960937 13.25 58.1875 C12.38890625 58.88230469 11.5278125 59.57710937 10.640625 60.29296875 C7.9556592 62.0286641 6.1812893 62.81063754 3 63 C1 61 1 61 0.71875 57.88671875 C1.03495804 53.51689933 2.07180213 49.92339386 3.5 45.8125 C4.88686982 41.75309455 6 38.35881678 6 34 C4.68 34 3.36 34 2 34 C-2.81207972 41.72675983 -6.71391515 48.57149272 -8.33203125 57.671875 C-9 60 -9 60 -12 62 C-15.1875 62.125 -15.1875 62.125 -18 62 C-17.41510843 49.9242386 -15.6982436 38.07370037 -13.9375 26.125 C-13.65253379 24.16543157 -13.36802531 22.20579652 -13.08398438 20.24609375 C-12.39458985 15.4966124 -11.69903408 10.74807175 -11 6 C-12.98 6 -14.96 6 -17 6 C-16.67 4.35 -16.34 2.7 -16 1 C-10.59255982 0.22750855 -5.46137814 -0.09752461 0 0 Z " fill="#FE5E5E" transform="translate(73,38)"/>
<path d="M0 0 C3.2295917 2.69132642 4.52068747 4.18682743 4.9609375 8.41015625 C5.05115124 17.27816671 4.9560432 25.34107171 -1.24609375 32.28125 C-5.81929049 36.50000238 -9.59206519 38.8333083 -15.8125 39.625 C-20.4278695 39.05820024 -22.19344064 37.51703887 -25.375 34.1875 C-28.44201983 27.96971918 -28.2989156 21.09339469 -26.72265625 14.4296875 C-24.25741863 7.5100935 -20.28257014 2.49196444 -13.9375 -1.25 C-8.47987638 -2.44801494 -4.89070154 -2.62648787 0 0 Z " fill="#FE5D5D" transform="translate(123.375,61.8125)"/>
<path d="M0 0 C1.625 1.1875 1.625 1.1875 3.625 4.1875 C3.55097724 8.77691117 3.37611808 11.14562654 0.6875 14.875 C-4.78500327 19.00729839 -10.57084307 22.06967422 -17.375 23.1875 C-15.83075673 28.21665051 -15.83075673 28.21665051 -12 31.4375 C-8.20204379 31.07578988 -6.939586 28.88360323 -4.375 26.1875 C-3.055 26.1875 -1.735 26.1875 -0.375 26.1875 C0.4375 27.8125 0.4375 27.8125 0.625 30.1875 C-2.71276051 35.3556453 -6.58368651 38.14283508 -12.375 40.1875 C-16.74221899 40.97359942 -17.93297081 40.49352021 -21.625 37.9375 C-25.64870442 33.91379558 -26.6751216 31.23828284 -26.75 25.5625 C-26.562934 17.01981942 -24.33201914 10.86679598 -18.375 4.6875 C-12.89610312 -0.53457359 -7.36908127 -2.52100149 0 0 Z " fill="#FE5E5E" transform="translate(257.375,60.8125)"/>
<path d="M0 0 C-1.05875074 3.40312738 -2.00902154 6.01353231 -4 9 C-4.66 9 -5.32 9 -6 9 C-6.433125 8.34 -6.86625 7.68 -7.3125 7 C-8.85583656 4.69657929 -8.85583656 4.69657929 -11.6875 4.75 C-12.8321875 4.87375 -12.8321875 4.87375 -14 5 C-14.33 6.32 -14.66 7.64 -15 9 C-14.13375 9.70125 -13.2675 10.4025 -12.375 11.125 C-11.24897129 12.0821244 -10.12402743 13.04052613 -9 14 C-8.42765625 14.45761719 -7.8553125 14.91523437 -7.265625 15.38671875 C-4.90212506 17.44071274 -3.22652601 18.91090766 -2.57446289 22.04589844 C-2.47875577 27.22240505 -3.47769089 30.21996095 -7 34 C-12.49890502 37.47867862 -17.56185514 38.84434687 -24 38 C-26.289245 36.8675803 -27.98670388 35.6106369 -30 34 C-29.64766839 28.5388601 -29.64766839 28.5388601 -29 26 C-26.9375 24.5 -26.9375 24.5 -25 24 C-24.525625 24.804375 -24.05125 25.60875 -23.5625 26.4375 C-22.23099846 28.84753488 -22.23099846 28.84753488 -21 30 C-19.00041636 30.04080783 -16.99954746 30.04254356 -15 30 C-14.67 28.35 -14.34 26.7 -14 25 C-14.69867188 24.46890625 -15.39734375 23.9378125 -16.1171875 23.390625 C-17.02726562 22.68421875 -17.93734375 21.9778125 -18.875 21.25 C-20.23238281 20.20585938 -20.23238281 20.20585938 -21.6171875 19.140625 C-24.97060138 16.12804991 -25.83318978 14.10511774 -26.5 9.6875 C-25.82420976 4.70354695 -23.70112387 2.27611443 -20 -1 C-13.724461 -4.90101073 -6.02957395 -3.71050705 0 0 Z " fill="#FD5F5F" transform="translate(292,63)"/>
<path d="M0 0 C2.63510143 0.36346227 3.78132141 0.76931757 5.63671875 2.7265625 C7.28805 5.48035846 7.22697529 6.95680324 7 10.125 C6.74920184 12.69348408 6.74920184 12.69348408 7 15 C7.99 15.66 8.98 16.32 10 17 C10.6159668 19.50268555 10.6159668 19.50268555 10.94921875 22.63671875 C11.07490234 23.77173828 11.20058594 24.90675781 11.33007812 26.07617188 C11.44802734 27.26791016 11.56597656 28.45964844 11.6875 29.6875 C11.88182617 31.44610352 11.88182617 31.44610352 12.08007812 33.24023438 C13.28800798 44.55898446 13.28800798 44.55898446 13 50 C12.67 50.33 12.34 50.66 12 51 C9.66666667 51 7.33333333 51 5 51 C4.67 51.33 4.34 51.66 4 52 C2.65732587 52.08631874 1.31025678 52.10706473 -0.03515625 52.09765625 C-0.84404297 52.09443359 -1.65292969 52.09121094 -2.48632812 52.08789062 C-3.33646484 52.07951172 -4.18660156 52.07113281 -5.0625 52.0625 C-5.91650391 52.05798828 -6.77050781 52.05347656 -7.65039062 52.04882812 C-9.76695663 52.03700373 -11.88348685 52.01906769 -14 52 C-14 51.67 -14 51.34 -14 51 C-8.39 51 -2.78 51 3 51 C2.67 48.69 2.34 46.38 2 44 C1.86162747 41.73223705 1.75684534 39.46220566 1.68359375 37.19140625 C1.64169922 35.95068359 1.59980469 34.70996094 1.55664062 33.43164062 C1.51732422 32.15482422 1.47800781 30.87800781 1.4375 29.5625 C1.39431641 28.25861328 1.35113281 26.95472656 1.30664062 25.61132812 C1.20102527 22.40766242 1.10005361 19.20384422 1 16 C-4.94 16 -10.88 16 -17 16 C-16.34 15.67 -15.68 15.34 -15 15 C-15.04640625 14.39671875 -15.0928125 13.7934375 -15.140625 13.171875 C-15.43248438 6.70927439 -15.43248438 6.70927439 -13.4375 3.4375 C-10.08477323 1.46025088 -7.82540234 1.51313061 -4 2 C-1.89641619 3.54262813 -1.15945841 4.68108317 0 7 C0.04022391 9.3329866 0.04320247 11.66706666 0 14 C0.66 14 1.32 14 2 14 C1.9278125 13.30132812 1.855625 12.60265625 1.78125 11.8828125 C1.6884375 10.97273438 1.595625 10.06265625 1.5 9.125 C1.4071875 8.22007813 1.314375 7.31515625 1.21875 6.3828125 C1 4 1 4 1 2 C0.67 1.34 0.34 0.68 0 0 Z " fill="#C8C5C9" transform="translate(410,61)"/>
<path d="M0 0 C-0.31008884 1.60463449 -0.62316287 3.20869231 -0.9375 4.8125 C-1.19853516 6.15248047 -1.19853516 6.15248047 -1.46484375 7.51953125 C-2 10 -2 10 -3 13 C-0.03 13 2.94 13 6 13 C6 14.65 6 16.3 6 18 C2.37 18 -1.26 18 -5 18 C-5.12375 19.36125 -5.2475 20.7225 -5.375 22.125 C-6.0347704 28.78007531 -7.0183883 35.38603376 -8 42 C-7.05898438 41.51917969 -6.11796875 41.03835937 -5.1484375 40.54296875 C-2.6704546 39.32857266 -0.6763593 38.51468448 2 38 C1.33407588 43.82683605 -1.45580834 46.72436341 -5.875 50.375 C-9 52 -9 52 -12.1875 52 C-15 51 -15 51 -16.875 49.375 C-19.44874049 43.94154785 -17.72258022 37.60840377 -16.5625 31.9375 C-15.6456176 27.30044405 -14.75004243 22.66773981 -14 18 C-15.65 18 -17.3 18 -19 18 C-19 16.35 -19 14.7 -19 13 C-17.02 12.67 -15.04 12.34 -13 12 C-12.67 9.03 -12.34 6.06 -12 3 C-3.2 0 -3.2 0 0 0 Z " fill="#FE5F5F" transform="translate(314,49)"/>
<path d="M0 0 C6.6 0 13.2 0 20 0 C20.62741754 5.01934034 21.14796986 9.68253292 21.31640625 14.6875 C21.35830078 15.87988281 21.40019531 17.07226562 21.44335938 18.30078125 C21.48267578 19.52152344 21.52199219 20.74226563 21.5625 22 C21.60568359 23.25167969 21.64886719 24.50335938 21.69335938 25.79296875 C21.79877967 28.86187069 21.89982871 31.93092225 22 35 C16.39 35 10.78 35 5 35 C4.98582031 33.15792969 4.97164063 31.31585938 4.95703125 29.41796875 C4.91014056 27.00778713 4.86189313 24.59763164 4.8125 22.1875 C4.80379883 20.36508789 4.80379883 20.36508789 4.79492188 18.50585938 C4.76591797 17.34248047 4.73691406 16.17910156 4.70703125 14.98046875 C4.68346558 13.37014771 4.68346558 13.37014771 4.65942383 11.72729492 C4.25278048 8.7654494 4.25278048 8.7654494 1.45581055 7.1262207 C0.64539307 6.75456787 -0.16502441 6.38291504 -1 6 C-0.67 4.02 -0.34 2.04 0 0 Z " fill="#231728" transform="translate(391,77)"/>
<path d="M0 0 C0.75643295 0.00142502 1.51286591 0.00285004 2.29222107 0.00431824 C3.57849144 -0.00029671 3.57849144 -0.00029671 4.89074707 -0.00500488 C5.81785995 0.00218063 6.74497284 0.00936615 7.70018005 0.01676941 C8.64940842 0.01722763 9.59863678 0.01768585 10.57662964 0.01815796 C12.58486683 0.02118178 14.59310164 0.02907192 16.6013031 0.04142761 C19.68708029 0.05968377 22.77255763 0.06193734 25.85838318 0.06169128 C27.80565142 0.06660633 29.75291761 0.07243459 31.70018005 0.07926941 C33.09388573 0.08093864 33.09388573 0.08093864 34.51574707 0.0826416 C35.37010849 0.08902145 36.22446991 0.09540131 37.10472107 0.10197449 C37.86035843 0.10578629 38.61599579 0.10959808 39.39453125 0.11352539 C41.1337738 0.24723816 41.1337738 0.24723816 42.1337738 1.24723816 C42.50996835 7.14095268 41.42661326 12.51026309 40.1337738 18.24723816 C39.4737738 18.24723816 38.8137738 18.24723816 38.1337738 18.24723816 C38.4637738 15.60723816 38.7937738 12.96723816 39.1337738 10.24723816 C37.4837738 10.24723816 35.8337738 10.24723816 34.1337738 10.24723816 C34.1337738 12.55723816 34.1337738 14.86723816 34.1337738 17.24723816 C33.4737738 16.91723816 32.8137738 16.58723816 32.1337738 16.24723816 C32.1337738 14.26723816 32.1337738 12.28723816 32.1337738 10.24723816 C30.4837738 10.24723816 28.8337738 10.24723816 27.1337738 10.24723816 C27.1337738 14.20723816 27.1337738 18.16723816 27.1337738 22.24723816 C26.4737738 22.24723816 25.8137738 22.24723816 25.1337738 22.24723816 C25.1337738 18.28723816 25.1337738 14.32723816 25.1337738 10.24723816 C23.4837738 10.24723816 21.8337738 10.24723816 20.1337738 10.24723816 C20.1337738 11.56723816 20.1337738 12.88723816 20.1337738 14.24723816 C19.4737738 14.24723816 18.8137738 14.24723816 18.1337738 14.24723816 C18.1337738 12.92723816 18.1337738 11.60723816 18.1337738 10.24723816 C16.4837738 10.24723816 14.8337738 10.24723816 13.1337738 10.24723816 C13.1337738 12.88723816 13.1337738 15.52723816 13.1337738 18.24723816 C12.4737738 18.24723816 11.8137738 18.24723816 11.1337738 18.24723816 C11.1337738 15.60723816 11.1337738 12.96723816 11.1337738 10.24723816 C9.4837738 10.24723816 7.8337738 10.24723816 6.1337738 10.24723816 C6.1337738 11.89723816 6.1337738 13.54723816 6.1337738 15.24723816 C5.4737738 15.24723816 4.8137738 15.24723816 4.1337738 15.24723816 C4.1337738 13.59723816 4.1337738 11.94723816 4.1337738 10.24723816 C2.8137738 10.57723816 1.4937738 10.90723816 0.1337738 11.24723816 C0.3503363 11.99489441 0.5668988 12.74255066 0.7900238 13.51286316 C1.0684613 14.49770691 1.3468988 15.48255066 1.6337738 16.49723816 C1.9122113 17.47176941 2.1906488 18.44630066 2.4775238 19.45036316 C3.1337738 22.24723816 3.1337738 22.24723816 3.1337738 26.24723816 C2.4737738 26.24723816 1.8137738 26.24723816 1.1337738 26.24723816 C0.29019418 23.18746716 -0.5392464 20.12403356 -1.3662262 17.05973816 C-1.60470276 16.19542175 -1.84317932 15.33110535 -2.08888245 14.44059753 C-2.31446838 13.59948425 -2.54005432 12.75837097 -2.7724762 11.89176941 C-2.98194885 11.1219574 -3.19142151 10.35214539 -3.40724182 9.55900574 C-3.91030564 7.02522313 -4.07956655 4.82321514 -3.8662262 2.24723816 C-1.8662262 0.24723816 -1.8662262 0.24723816 0 0 Z " fill="#E9E8EA" transform="translate(347.86622619628906,54.75276184082031)"/>
<path d="M0 0 C4.29 0 8.58 0 13 0 C13.33 0.99 13.66 1.98 14 3 C14.99 3.33 15.98 3.66 17 4 C17 10.27 17 16.54 17 23 C18.98 23 20.96 23 23 23 C23 23.33 23 23.66 23 24 C16.04785719 25.31191997 9.11555097 25.11058058 2.0625 25.0625 C0.80630859 25.05798828 -0.44988281 25.05347656 -1.74414062 25.04882812 C-4.82947663 25.03709681 -7.91471316 25.020681 -11 25 C-11 24.67 -11 24.34 -11 24 C-8.69 24 -6.38 24 -4 24 C-4 17.4 -4 10.8 -4 4 C-3.01 3.67 -2.02 3.34 -1 3 C-0.67 2.01 -0.34 1.02 0 0 Z " fill="#F8F7F8" transform="translate(372,24)"/>
<path d="M0 0 C0 0.66 0 1.32 0 2 C-1.3921875 2.2165625 -1.3921875 2.2165625 -2.8125 2.4375 C-6.0229706 3.62776348 -6.0229706 3.62776348 -6.9609375 5.78515625 C-7.74381268 8.17166283 -8.38481667 10.56489932 -9 13 C-9.55606013 14.85610813 -10.11841632 16.71034341 -10.6875 18.5625 C-11.12639904 20.04125215 -11.56442084 21.52026655 -12 23 C-10.80375 22.896875 -9.6075 22.79375 -8.375 22.6875 C-4.95850513 22.66929488 -3.19761597 23.18868724 -0.5625 25.375 C2.94836844 28.97149938 2.94836844 28.97149938 3.09765625 31.9453125 C3.06510417 33.96354167 3.03255208 35.98177083 3 38 C2.34 38 1.68 38 1 38 C0.34 34.37 -0.32 30.74 -1 27 C-2.423125 26.938125 -3.84625 26.87625 -5.3125 26.8125 C-6.11300781 26.77769531 -6.91351563 26.74289063 -7.73828125 26.70703125 C-10.04056888 26.82843231 -10.04056888 26.82843231 -11.75 28.21875 C-13.308371 30.43942868 -13.49249255 31.99639718 -13.6875 34.6875 C-13.75324219 35.49574219 -13.81898438 36.30398437 -13.88671875 37.13671875 C-13.92410156 37.75160156 -13.96148437 38.36648437 -14 39 C-15.98 39.495 -15.98 39.495 -18 40 C-18.33 41.98 -18.66 43.96 -19 46 C-18.01 46.33 -17.02 46.66 -16 47 C-14.28533964 50.42932071 -14.94595944 54.21716065 -15 58 C-19.62 58 -24.24 58 -29 58 C-29 54.7 -29 51.4 -29 48 C-25.535 47.505 -25.535 47.505 -22 47 C-25.96 46.67 -29.92 46.34 -34 46 C-30.125 40.125 -30.125 40.125 -29 39 C-25.79950343 38.82700019 -23.07045451 39.0902357 -20 40 C-19.87753906 38.865625 -19.75507813 37.73125 -19.62890625 36.5625 C-19.05293264 31.95471114 -18.04247653 27.50580537 -16.9375 23 C-16.75123047 22.22527344 -16.56496094 21.45054688 -16.37304688 20.65234375 C-15.91923822 18.76729241 -15.46017508 16.8835073 -15 15 C-14.34 15 -13.68 15 -13 15 C-12.76216797 13.87851562 -12.76216797 13.87851562 -12.51953125 12.734375 C-10.61518189 4.69612688 -10.61518189 4.69612688 -7.625 1.3125 C-4.80136959 -0.09931521 -3.11218243 -0.35567799 0 0 Z " fill="#FAFAFA" transform="translate(409,37)"/>
<path d="M0 0 C1.87171875 -0.00386719 1.87171875 -0.00386719 3.78125 -0.0078125 C5.74578125 0.00378906 5.74578125 0.00378906 7.75 0.015625 C9.0596875 0.00789063 10.369375 0.00015625 11.71875 -0.0078125 C12.9665625 -0.00523438 14.214375 -0.00265625 15.5 0 C16.64984375 0.00225586 17.7996875 0.00451172 18.984375 0.00683594 C21.75 0.265625 21.75 0.265625 23.75 2.265625 C23.97705078 4.87939453 23.97705078 4.87939453 23.9453125 8.1484375 C23.93886719 9.31503906 23.93242187 10.48164063 23.92578125 11.68359375 C23.90902344 12.90691406 23.89226562 14.13023438 23.875 15.390625 C23.86597656 16.62167969 23.85695313 17.85273437 23.84765625 19.12109375 C23.82402548 22.16946315 23.79108054 25.21744882 23.75 28.265625 C21.77 28.265625 19.79 28.265625 17.75 28.265625 C17.75 21.995625 17.75 15.725625 17.75 9.265625 C16.43 8.935625 15.11 8.605625 13.75 8.265625 C13.75 7.275625 13.75 6.285625 13.75 5.265625 C9.46 5.265625 5.17 5.265625 0.75 5.265625 C0.42 6.585625 0.09 7.905625 -0.25 9.265625 C-1.24 9.265625 -2.23 9.265625 -3.25 9.265625 C-3.25 15.535625 -3.25 21.805625 -3.25 28.265625 C-4.9 28.265625 -6.55 28.265625 -8.25 28.265625 C-8.30783842 23.97401453 -8.3435412 19.68250355 -8.375 15.390625 C-8.39175781 14.16730469 -8.40851563 12.94398437 -8.42578125 11.68359375 C-8.43222656 10.51699219 -8.43867188 9.35039062 -8.4453125 8.1484375 C-8.45578613 7.06965332 -8.46625977 5.99086914 -8.47705078 4.87939453 C-8.003845 -0.56806897 -4.60945676 0.00904322 0 0 Z " fill="#25182A" transform="translate(371.25,18.734375)"/>
<path d="M0 0 C1.38296383 0.01143555 2.76581807 0.03739992 4.1484375 0.0703125 C7.7990625 0.1321875 7.7990625 0.1321875 11.5234375 0.1953125 C11.5234375 7.4553125 11.5234375 14.7153125 11.5234375 22.1953125 C7.594375 22.22625 7.594375 22.22625 3.5859375 22.2578125 C2.759729 22.2669165 1.93352051 22.27602051 1.08227539 22.28540039 C-0.77090009 22.29255195 -2.62405558 22.2455977 -4.4765625 22.1953125 C-6.7162773 19.9555977 -5.66188083 14.76633762 -5.6640625 11.7578125 C-5.67630859 10.87287109 -5.68855469 9.98792969 -5.70117188 9.07617188 C-5.70310547 8.22990234 -5.70503906 7.38363281 -5.70703125 6.51171875 C-5.71114014 5.73256104 -5.71524902 4.95340332 -5.71948242 4.15063477 C-5.24555967 0.33591386 -3.58545721 0.20143018 0 0 Z " fill="#BCB8BD" transform="translate(332.4765625,92.8046875)"/>
<path d="M0 0 C2.375 1.5 2.375 1.5 4 4 C4.32638734 6.75849942 4.18634339 9.20484912 4 12 C3.34 12 2.68 12 2 12 C1.67 11.34 1.34 10.68 1 10 C-2.85036862 9.53795577 -6.41969538 9.16674847 -9.93359375 11.01953125 C-12.49037372 13.24521741 -13.82023118 14.9478237 -14.3984375 18.33203125 C-14.45020824 21.53663985 -14.44590392 24.10819216 -13 27 C-16.25 27.3125 -16.25 27.3125 -20 27 C-22.5 24.875 -22.5 24.875 -24 22 C-24.09759647 17.517069 -22.65383238 15.30981714 -19.69140625 12.16796875 C-18.32776601 10.82813601 -16.95095688 9.50159816 -15.5625 8.1875 C-14.86833984 7.50751953 -14.17417969 6.82753906 -13.45898438 6.12695312 C-6.48126073 -0.64812607 -6.48126073 -0.64812607 0 0 Z " fill="#2E2233" transform="translate(357,20)"/>
<path d="M0 0 C0.94875 0.185625 1.8975 0.37125 2.875 0.5625 C6.55088297 6.07632446 5.59925657 14.65516626 4.41015625 21.0703125 C3.75 22.9375 3.75 22.9375 1.875 25.5625 C-1.3125 26.5 -1.3125 26.5 -4.125 26.5625 C-7.15675085 22.37273292 -7.55733665 19.2522049 -7.5625 14.125 C-7.58183594 12.84753906 -7.60117188 11.57007812 -7.62109375 10.25390625 C-6.92532975 5.07676471 -5.45410777 0.9817394 0 0 Z " fill="#FEF9F9" transform="translate(113.125,67.4375)"/>
<path d="M0 0 C1.98 0 3.96 0 6 0 C7.82732077 5.6508743 8.58748522 11.09614913 9.125 17 C9.21136719 17.86367187 9.29773438 18.72734375 9.38671875 19.6171875 C9.84747005 24.42947888 10.19285308 29.16581612 10 34 C9 35 9 35 5.4375 35.0625 C4.303125 35.041875 3.16875 35.02125 2 35 C1.66171232 30.66703867 1.33026252 26.33357981 1 22 C0.90460938 20.77925781 0.80921875 19.55851562 0.7109375 18.30078125 C0.24785843 12.18152207 -0.12273706 6.13685286 0 0 Z " fill="#25182A" transform="translate(413,77)"/>
<path d="M0 0 C4.62 0 9.24 0 14 0 C14.02684312 2.81256281 14.04676188 5.62487241 14.0625 8.4375 C14.07087891 9.23994141 14.07925781 10.04238281 14.08789062 10.86914062 C14.0965143 12.91295221 14.0522815 14.95683902 14 17 C13 18 13 18 10.05859375 18.09765625 C6.70572917 18.06510417 3.35286458 18.03255208 0 18 C0 12.06 0 6.12 0 0 Z " fill="#231628" transform="translate(380,97)"/>
<path d="M0 0 C4.62 0 9.24 0 14 0 C14 5.94 14 11.88 14 18 C3.94140625 18.09765625 3.94140625 18.09765625 1 18 C0 17 0 17 -0.09765625 13.18359375 C-0.09098089 11.60153318 -0.07901875 10.01948841 -0.0625 8.4375 C-0.05798828 7.63119141 -0.05347656 6.82488281 -0.04882812 5.99414062 C-0.03700518 3.99606244 -0.01906914 1.99802217 0 0 Z " fill="#261A2B" transform="translate(354,97)"/>
<path d="M0 0 C0.99 0 1.98 0 3 0 C5.6392636 5.2785272 4.36754841 12.64123827 2.625 18.0625 C1.65757535 20.76444865 1.06768164 21.93231836 -1 24 C-3.72869407 23.96712417 -6.2966618 23.43602229 -9 23 C-10.34227445 19.32117373 -10.0042085 18.0097471 -8.41796875 14.3359375 C-7.68895755 13.0075759 -6.94492952 11.68736519 -6.1875 10.375 C-5.63352539 9.37339844 -5.63352539 9.37339844 -5.06835938 8.3515625 C-3.47539589 5.49166396 -1.81630521 2.72445781 0 0 Z " fill="#FEF6F6" transform="translate(157,69)"/>
<path d="M0 0 C4.50194278 0.91876383 5.53867573 2.8392636 8.0625 6.625 C8.0625 7.615 8.0625 8.605 8.0625 9.625 C6.93070312 9.75777344 5.79890625 9.89054687 4.6328125 10.02734375 C3.15101821 10.2055342 1.66924864 10.38393029 0.1875 10.5625 C-0.55886719 10.64951172 -1.30523437 10.73652344 -2.07421875 10.82617188 C-6.1328231 11.25826063 -6.1328231 11.25826063 -9.9375 12.625 C-10.40401207 14.75076782 -10.40401207 14.75076782 -10.5625 17.1875 C-10.63726562 18.01378906 -10.71203125 18.84007813 -10.7890625 19.69140625 C-10.83804687 20.32949219 -10.88703125 20.96757813 -10.9375 21.625 C-11.2675 21.625 -11.5975 21.625 -11.9375 21.625 C-11.9375 19.315 -11.9375 17.005 -11.9375 14.625 C-12.5975 14.625 -13.2575 14.625 -13.9375 14.625 C-13.9375 15.945 -13.9375 17.265 -13.9375 18.625 C-16.5775 18.625 -19.2175 18.625 -21.9375 18.625 C-20.78576645 16.15699953 -19.88966435 14.57716435 -17.9375 12.625 C-16.27249557 12.28346063 -14.60571323 11.95050502 -12.9375 11.625 C-11.9475 10.965 -10.9575 10.305 -9.9375 9.625 C-8.9475 9.625 -7.9575 9.625 -6.9375 9.625 C-7.06125 8.51125 -7.06125 8.51125 -7.1875 7.375 C-6.9375 4.625 -6.9375 4.625 -5.3125 2.3125 C-2.9375 0.625 -2.9375 0.625 0 0 Z " fill="#ECEBEC" transform="translate(364.9375,73.375)"/>
<path d="M0 0 C2.4375 1.6875 2.4375 1.6875 4 4 C4 5.98 4 7.96 4 10 C-1.61 10 -7.22 10 -13 10 C-13 4 -13 4 -10.4375 1.0625 C-6.83232054 -1.57959369 -4.26158006 -1.34160854 0 0 Z " fill="#241829" transform="translate(383,37)"/>
<path d="M0 0 C0.25706972 5.91260345 -0.7017874 11.23918159 -2 17 C-2.66 17 -3.32 17 -4 17 C-3.67 14.36 -3.34 11.72 -3 9 C-4.65 9 -6.3 9 -8 9 C-8 11.31 -8 13.62 -8 16 C-8.66 15.67 -9.32 15.34 -10 15 C-10 13.02 -10 11.04 -10 9 C-11.65 9 -13.3 9 -15 9 C-15 6.36 -15 3.72 -15 1 C-9.94997778 -0.03590199 -5.12583611 -0.10251672 0 0 Z " fill="#CBC8CC" transform="translate(390,56)"/>
<path d="M0 0 C0.66 0.66 1.32 1.32 2 2 C1.67826087 8.75652174 1.67826087 8.75652174 -0.125 12.0625 C-2 13 -2 13 -5.375 12.375 C-6.57125 12.25125 -7.7675 12.1275 -9 12 C-11.96050874 14.29199403 -11.96050874 14.29199403 -14 17 C-17.36720387 15.60667426 -18.9859524 14.0210714 -21 11 C-19.35 10.67 -17.7 10.34 -16 10 C-16 11.32 -16 12.64 -16 14 C-15.34 14 -14.68 14 -14 14 C-14 10.04 -14 6.08 -14 2 C-12.35 2 -10.7 2 -9 2 C-8.67 3.98 -8.34 5.96 -8 8 C-7.67 6.02 -7.34 4.04 -7 2 C-5.35 2 -3.7 2 -2 2 C-2.33 4.64 -2.66 7.28 -3 10 C-2.34 10 -1.68 10 -1 10 C-0.67 6.7 -0.34 3.4 0 0 Z " fill="#362A3A" transform="translate(389,63)"/>
<path d="M0 0 C2.4375 2 2.4375 2 4 4 C3.67 4.99 3.34 5.98 3 7 C1.88625 7.433125 0.7725 7.86625 -0.375 8.3125 C-4.60550736 10.28187411 -5.38739059 11.73132804 -7 16 C-8.875 15.75 -8.875 15.75 -11 15 C-12.50049658 12.89930478 -12.96982621 11.14332549 -13.5 8.625 C-12.83713752 5.144972 -11.36542004 3.53644812 -8.78515625 1.17578125 C-5.750341 -0.82307956 -3.48403932 -0.64519247 0 0 Z " fill="#372C3C" transform="translate(357,31)"/>
<path d="M0 0 C2.64 0 5.28 0 8 0 C8 5.94 8 11.88 8 18 C5.36 18 2.72 18 0 18 C0 12.06 0 6.12 0 0 Z " fill="#221527" transform="translate(370,97)"/>
<path d="M0 0 C7.95467422 -0.61189802 7.95467422 -0.61189802 11.5625 1.5 C13.65742367 5.14334551 13.27769546 7.83456807 13 12 C12.4328125 11.67515625 11.865625 11.3503125 11.28125 11.015625 C8.81289826 9.91670128 7.18396781 9.73161666 4.5 9.75 C3.7471875 9.74484375 2.994375 9.7396875 2.21875 9.734375 C-0.2296721 10.02749596 -1.87304054 10.78183231 -4 12 C-4 9.36 -4 6.72 -4 4 C-3.01 3.67 -2.02 3.34 -1 3 C-0.67 2.01 -0.34 1.02 0 0 Z " fill="#231628" transform="translate(374,26)"/>
<path d="M0 0 C2.14576637 -0.02685938 4.29162645 -0.04633088 6.4375 -0.0625 C7.63246094 -0.07410156 8.82742188 -0.08570312 10.05859375 -0.09765625 C13 0 13 0 14 1 C14.14193337 4.00331018 14.04236378 6.99217134 14 10 C9.38 10 4.76 10 0 10 C0 6.7 0 3.4 0 0 Z " fill="#221527" transform="translate(380,85)"/>
<path d="M0 0 C1.79244141 0.01740234 1.79244141 0.01740234 3.62109375 0.03515625 C5.41740234 0.04869141 5.41740234 0.04869141 7.25 0.0625 C8.17683594 0.07410156 9.10367187 0.08570312 10.05859375 0.09765625 C10.05859375 3.39765625 10.05859375 6.69765625 10.05859375 10.09765625 C5.43859375 10.09765625 0.81859375 10.09765625 -3.94140625 10.09765625 C-4.0390625 3.1640625 -4.0390625 3.1640625 -3.94140625 1.09765625 C-2.94140625 0.09765625 -2.94140625 0.09765625 0 0 Z " fill="#241728" transform="translate(357.94140625,84.90234375)"/>
<path d="M0 0 C1.31291016 -0.02513672 1.31291016 -0.02513672 2.65234375 -0.05078125 C5.0625 0.3125 5.0625 0.3125 6.890625 1.63671875 C8.0625 3.3125 8.0625 3.3125 7.875 6.4375 C7.606875 7.38625 7.33875 8.335 7.0625 9.3125 C4.60867866 10.53941067 2.86265897 10.51425931 0.125 10.5625 C-0.75027344 10.58828125 -1.62554687 10.6140625 -2.52734375 10.640625 C-4.9375 10.3125 -4.9375 10.3125 -6.765625 8.95703125 C-7.9375 7.3125 -7.9375 7.3125 -7.75 4.75 C-6.2620357 0.28610709 -4.37386911 0.01926815 0 0 Z " fill="#2E2233" transform="translate(418.9375,32.6875)"/>
<path d="M0 0 C3.3 0 6.6 0 10 0 C10 3.96 10 7.92 10 12 C3.06640625 12.09765625 3.06640625 12.09765625 1 12 C0 11 0 11 -0.09765625 8.49609375 C-0.08605469 7.48675781 -0.07445312 6.47742188 -0.0625 5.4375 C-0.05347656 4.42558594 -0.04445313 3.41367188 -0.03515625 2.37109375 C-0.02355469 1.58863281 -0.01195312 0.80617188 0 0 Z " fill="#231628" transform="translate(327,103)"/>
<path d="M0 0 C1.98 0 3.96 0 6 0 C7.57531709 4.8244086 8.48503732 8.85860437 8 14 C6.5 16.4375 6.5 16.4375 5 18 C4.34 17.67 3.68 17.34 3 17 C2.34 18.32 1.68 19.64 1 21 C0.67 14.07 0.34 7.14 0 0 Z " fill="#2D2132" transform="translate(413,77)"/>
<path d="M0 0 C6.54675119 0.48494453 6.54675119 0.48494453 8.375 2.5625 C9.26367187 6.0283203 9.64385424 9.43854238 10 13 C6.04 13 2.08 13 -2 13 C-1.34 12.67 -0.68 12.34 0 12 C0 11.38511719 0 10.77023438 0 10.13671875 C0 6.7578125 0 3.37890625 0 0 Z " fill="#F7F6F7" transform="translate(401,63)"/>
<path d="M0 0 C1.65 0 3.3 0 5 0 C5 1.32 5 2.64 5 4 C5.66 4 6.32 4 7 4 C7 2.68 7 1.36 7 0 C8.65 0 10.3 0 12 0 C12 2.64 12 5.28 12 8 C9.47524538 9.26237731 7.68799534 9.09856404 4.875 9.0625 C3.96492188 9.05347656 3.05484375 9.04445313 2.1171875 9.03515625 C1.41851562 9.02355469 0.71984375 9.01195313 0 9 C0 6.03 0 3.06 0 0 Z " fill="#221527" transform="translate(361,65)"/>
<path d="M0 0 C1.74965358 -0.05429959 3.49979787 -0.09292823 5.25 -0.125 C6.22453125 -0.14820312 7.1990625 -0.17140625 8.203125 -0.1953125 C11 0 11 0 15 2 C11.37 2 7.74 2 4 2 C4.061875 3.60875 4.12375 5.2175 4.1875 6.875 C4.29296875 9.6171875 4.29296875 9.6171875 4 12 C-2.90071404 16.60047603 -14.09204717 13.69411498 -22 13 C-22 12.67 -22 12.34 -22 12 C-17.38 12 -12.76 12 -8 12 C-8 8.37 -8 4.74 -8 1 C-7.67 1 -7.34 1 -7 1 C-7 4.63 -7 8.26 -7 12 C-4.03 12 -1.06 12 2 12 C2 8.37 2 4.74 2 1 C1.34 0.67 0.68 0.34 0 0 Z " fill="#EDECEE" transform="translate(376,83)"/>
<path d="M0 0 C2.64 0 5.28 0 8 0 C8 3.3 8 6.6 8 10 C5.36 10 2.72 10 0 10 C0 6.7 0 3.4 0 0 Z " fill="#211426" transform="translate(370,85)"/>
<path d="M0 0 C1.32 0.33 2.64 0.66 4 1 C4.8125 2.6875 4.8125 2.6875 5 5 C1.82576264 9.03993846 -1.05770013 10.73569073 -6 12 C-5.59791618 6.37082652 -3.71069698 3.99613521 0 0 Z " fill="#FFF1F1" transform="translate(247,67)"/>
<path d="M0 0 C0.33 0 0.66 0 1 0 C1.33 1.65 1.66 3.3 2 5 C3.65 5.33 5.3 5.66 7 6 C7 4.02 7 2.04 7 0 C7.33 0 7.66 0 8 0 C8.12375 1.175625 8.12375 1.175625 8.25 2.375 C8.72806339 5.14749104 8.72806339 5.14749104 11.0625 6.3125 C11.701875 6.539375 12.34125 6.76625 13 7 C11.68 7 10.36 7 9 7 C9 11.29 9 15.58 9 20 C8.34 20 7.68 20 7 20 C7 16.04 7 12.08 7 8 C5.35 8 3.7 8 2 8 C2 9.32 2 10.64 2 12 C1.34 12 0.68 12 0 12 C0 10.68 0 9.36 0 8 C-1.65 8 -3.3 8 -5 8 C-5 7.67 -5 7.34 -5 7 C-3.35 7 -1.7 7 0 7 C0 4.69 0 2.38 0 0 Z " fill="#DBD9DB" transform="translate(366,57)"/>
<path d="M0 0 C1.98 0 3.96 0 6 0 C6 3.96 6 7.92 6 12 C4.02 12 2.04 12 0 12 C0 8.04 0 4.08 0 0 Z " fill="#281B2D" transform="translate(346,103)"/>
<path d="M0 0 C0.33 0 0.66 0 1 0 C2.98984772 22.03045685 2.98984772 22.03045685 1 28 C-4.94 28 -10.88 28 -17 28 C-17 27.67 -17 27.34 -17 27 C-11.39 27 -5.78 27 0 27 C-0.33 24.69 -0.66 22.38 -1 20 C-1.08839532 17.64712451 -1.1302149 15.29202959 -1.125 12.9375 C-1.12886719 11.18759766 -1.12886719 11.18759766 -1.1328125 9.40234375 C-1.00705895 6.18083357 -0.60653887 3.16266694 0 0 Z " fill="#BEBABF" transform="translate(413,85)"/>
<path d="M0 0 C3.45900879 1.19493031 5.37054748 2.4008824 7.5703125 5.35546875 C9.13382062 8.65855572 8.74716629 11.59537104 8.4375 15.1875 C7.7775 15.1875 7.1175 15.1875 6.4375 15.1875 C5.7775 11.5575 5.1175 7.9275 4.4375 4.1875 C3.014375 4.125625 1.59125 4.06375 0.125 4 C-0.67550781 3.96519531 -1.47601563 3.93039063 -2.30078125 3.89453125 C-4.60865844 4.01261407 -4.60865844 4.01261407 -6.3125 5.4375 C-7.79108982 7.50752575 -8.04350821 8.85580019 -8.25 11.375 C-8.353125 12.633125 -8.45625 13.89125 -8.5625 15.1875 C-8.8925 15.1875 -9.2225 15.1875 -9.5625 15.1875 C-10.45534762 6.67237919 -10.45534762 6.67237919 -8.47265625 3.375 C-5.73957296 0.82315566 -3.6889078 0.19415304 0 0 Z " fill="#554B59" transform="translate(403.5625,59.8125)"/>
<path d="M0 0 C1.23556641 0.01740234 1.23556641 0.01740234 2.49609375 0.03515625 C3.32238281 0.04417969 4.14867187 0.05320312 5 0.0625 C5.63808594 0.07410156 6.27617187 0.08570312 6.93359375 0.09765625 C6.93359375 2.40765625 6.93359375 4.71765625 6.93359375 7.09765625 C3.63359375 7.09765625 0.33359375 7.09765625 -3.06640625 7.09765625 C-3.10894981 5.09810879 -3.10721408 3.09723989 -3.06640625 1.09765625 C-2.06640625 0.09765625 -2.06640625 0.09765625 0 0 Z " fill="#3B3040" transform="translate(330.06640625,93.90234375)"/>
<path d="M0 0 C3.25 0.5 3.25 0.5 4.7578125 2.0625 C5.99977395 3.82253679 7.13206306 5.65869211 8.25 7.5 C3.96 7.5 -0.33 7.5 -4.75 7.5 C-3.609375 0.65625 -3.609375 0.65625 0 0 Z " fill="#3D3241" transform="translate(364.75,75.5)"/>
<path d="M0 0 C0 0.99 0 1.98 0 3 C-1.216875 2.87625 -2.43375 2.7525 -3.6875 2.625 C-7.50271854 2.625 -7.90041884 2.91286648 -11 5.625 C-13.1370529 9.23127677 -13.55881444 10.90202743 -13 15 C-12.67 15.66 -12.34 16.32 -12 17 C-12.33 17.66 -12.66 18.32 -13 19 C-15.31 19 -17.62 19 -20 19 C-20 18.67 -20 18.34 -20 18 C-18.35 17.67 -16.7 17.34 -15 17 C-15.165 16.46375 -15.33 15.9275 -15.5 15.375 C-16.95117406 8.48192322 -16.95117406 8.48192322 -14.75390625 5.05859375 C-10.26172222 -0.07681293 -6.65550185 -0.95078598 0 0 Z " fill="#DCDADD" transform="translate(358,29)"/>
<path d="M0 0 C2.625 0.25 2.625 0.25 4.4375 1.5 C5.625 3.25 5.625 3.25 5.625 7.25 C1.335 7.25 -2.955 7.25 -7.375 7.25 C-2.78655235 0.2933213 -2.78655235 0.2933213 0 0 Z " fill="#2E2233" transform="translate(382.375,75.75)"/>
<path d="M0 0 C0.33 1.32 0.66 2.64 1 4 C-3.51350747 7.52273754 -6.28341664 8.45732667 -12 8 C-12 5 -12 5 -9.9375 2.3125 C-6.34650802 -0.51445113 -4.45768233 -0.43702768 0 0 Z " fill="#25192A" transform="translate(357,31)"/>
<path d="M0 0 C1.65 0 3.3 0 5 0 C5.625 1.8125 5.625 1.8125 6 4 C5.01 5.485 5.01 5.485 4 7 C4.99 7.33 5.98 7.66 7 8 C5.72125 8.309375 4.4425 8.61875 3.125 8.9375 C0.89898325 9.47605244 -0.94739999 9.9737 -3 11 C-3 8.36 -3 5.72 -3 3 C-2.01 2.67 -1.02 2.34 0 2 C0 1.34 0 0.68 0 0 Z " fill="#322737" transform="translate(373,27)"/>
<path d="M0 0 C0 0.66 0 1.32 0 2 C-0.928125 2.144375 -1.85625 2.28875 -2.8125 2.4375 C-6.0229706 3.62776348 -6.0229706 3.62776348 -6.9609375 5.78515625 C-7.74416746 8.17274436 -8.39314276 10.56153729 -9 13 C-9.48815401 14.81572628 -9.98797899 16.62835912 -10.5 18.4375 C-10.82484375 19.67306641 -10.82484375 19.67306641 -11.15625 20.93359375 C-12 23 -12 23 -15 25 C-14.40704808 22.10145838 -13.8011439 19.2066678 -13.1875 16.3125 C-12.9390332 15.08756836 -12.9390332 15.08756836 -12.68554688 13.83789062 C-11.03721756 6.15605402 -9.10336693 -0.49207389 0 0 Z " fill="#4B404F" transform="translate(409,37)"/>
<path d="M0 0 C0.66 0.99 1.32 1.98 2 3 C2.99 3.66 3.98 4.32 5 5 C4.67 8.3 4.34 11.6 4 15 C3.01 15.33 2.02 15.66 1 16 C0.4225 15.505 -0.155 15.01 -0.75 14.5 C-3.04464267 12.64650296 -3.04464267 12.64650296 -6.5625 13.1875 C-10.0949807 13.81167444 -10.0949807 13.81167444 -13 16 C-13.66 15.67 -14.32 15.34 -15 15 C-15 12.03 -15 9.06 -15 6 C-14.67 6 -14.34 6 -14 6 C-13.67 8.31 -13.34 10.62 -13 13 C-12.01 12.34 -11.02 11.68 -10 11 C-7.84375 10.734375 -7.84375 10.734375 -5.5 10.75 C-4.7265625 10.74484375 -3.953125 10.7396875 -3.15625 10.734375 C-1 11 -1 11 2 13 C2.33 10.69 2.66 8.38 3 6 C2.01 5.67 1.02 5.34 0 5 C0 3.35 0 1.7 0 0 Z " fill="#D9D7DA" transform="translate(384,24)"/>
<path d="M0 0 C1.65 0 3.3 0 5 0 C5 3.96 5 7.92 5 12 C3.35 12 1.7 12 0 12 C0 8.04 0 4.08 0 0 Z " fill="#231628" transform="translate(339,103)"/>
<path d="M0 0 C0 2.64 0 5.28 0 8 C-2.97 8 -5.94 8 -9 8 C-7.38794515 3.02949753 -5.53380518 0 0 0 Z " fill="#392E3D" transform="translate(361,39)"/>
<path d="M0 0 C0.33 0 0.66 0 1 0 C1 5.94 1 11.88 1 18 C2.98 18 4.96 18 7 18 C7 18.33 7 18.66 7 19 C1.18784382 19.8916376 -4.146336 20.00380742 -10 19.5625 C-10.77472656 19.51029297 -11.54945313 19.45808594 -12.34765625 19.40429688 C-14.23224487 19.27633098 -16.11620371 19.13914404 -18 19 C-18 18.67 -18 18.34 -18 18 C-12.39 18 -6.78 18 -1 18 C-1.33 15.36 -1.66 12.72 -2 10 C-1.34 10 -0.68 10 0 10 C0 6.7 0 3.4 0 0 Z " fill="#E4E2E4" transform="translate(388,29)"/>
<path d="M0 0 C0.33 0 0.66 0 1 0 C1 5.94 1 11.88 1 18 C-0.65 18 -2.3 18 -4 18 C-4 14.7 -4 11.4 -4 8 C-2.02 8.99 -2.02 8.99 0 10 C0 6.7 0 3.4 0 0 Z " fill="#403544" transform="translate(367,29)"/>
<path d="M0 0 C1.65 0.33 3.3 0.66 5 1 C5 2.32 5 3.64 5 5 C0.03006806 7.43425238 -3.34605369 8.34615998 -9 8 C-9 7.67 -9 7.34 -9 7 C-7.35 7 -5.7 7 -4 7 C-3.71125 6.401875 -3.4225 5.80375 -3.125 5.1875 C-2 3 -2 3 0 0 Z " fill="#F66666" transform="translate(113,93)"/>
<path d="M0 0 C1.98 0 3.96 0 6 0 C6.38133299 1.9914056 6.71325582 3.99279077 7 6 C6.67 6.33 6.34 6.66 6 7 C4.30858344 6.91036938 2.62040398 6.75422324 0.9375 6.5625 C-0.44115234 6.40974609 -0.44115234 6.40974609 -1.84765625 6.25390625 C-2.55792969 6.17011719 -3.26820312 6.08632813 -4 6 C-3.525625 5.566875 -3.05125 5.13375 -2.5625 4.6875 C-0.76313043 2.97690387 -0.76313043 2.97690387 0 0 Z " fill="#F65757" transform="translate(37,46)"/>
<path d="M0 0 C3.3 0 6.6 0 10 0 C10 3.96 10 7.92 10 12 C9.67 12 9.34 12 9 12 C9 8.7 9 5.4 9 2 C6.03 3.65 3.06 5.3 0 7 C0 4.69 0 2.38 0 0 Z " fill="#312636" transform="translate(327,103)"/>
<path d="M0 0 C0.3125 3.3125 0.3125 3.3125 0 7 C-2.3125 9 -2.3125 9 -5 10 C-5.99 9.67 -6.98 9.34 -8 9 C-8.33 7.35 -8.66 5.7 -9 4 C-8.236875 3.71125 -7.47375 3.4225 -6.6875 3.125 C-4.58742065 2.24589701 -2.1647642 0 0 0 Z " fill="#221627" transform="translate(412,96)"/>
<path d="M0 0 C1.98 0 3.96 0 6 0 C6 2.64 6 5.28 6 8 C4.02 8 2.04 8 0 8 C0 5.36 0 2.72 0 0 Z " fill="#403544" transform="translate(346,93)"/>
<path d="M0 0 C0.33 0 0.66 0 1 0 C1 2.64 1 5.28 1 8 C2.32 8.66 3.64 9.32 5 10 C3.35 11.65 1.7 13.3 0 15 C-3.36720387 13.60667426 -4.9859524 12.0210714 -7 9 C-5.35 8.67 -3.7 8.34 -2 8 C-2 9.32 -2 10.64 -2 12 C-1.34 12 -0.68 12 0 12 C0 8.04 0 4.08 0 0 Z " fill="#362B3B" transform="translate(375,65)"/>
<path d="M0 0 C0.33 0 0.66 0 1 0 C0.85764543 1.72945653 0.71095618 3.45855654 0.5625 5.1875 C0.48128906 6.15042969 0.40007812 7.11335938 0.31640625 8.10546875 C0.02333849 10.78649602 -0.42703754 13.3662986 -1 16 C-1.66 16 -2.32 16 -3 16 C-2.67 13.36 -2.34 10.72 -2 8 C-3.65 8 -5.3 8 -7 8 C-7 10.31 -7 12.62 -7 15 C-7.33 15 -7.66 15 -8 15 C-8 12.03 -8 9.06 -8 6 C-4.535 5.505 -4.535 5.505 -1 5 C-0.67 3.35 -0.34 1.7 0 0 Z " fill="#EEEDEE" transform="translate(389,57)"/>
<path d="M0 0 C1.32 0.99 2.64 1.98 4 3 C3.125 7.875 3.125 7.875 2 9 C0.00041636 9.04080783 -2.00045254 9.04254356 -4 9 C-4 8.01 -4 7.02 -4 6 C-3.01 5.34 -2.02 4.68 -1 4 C-0.27617533 1.94074861 -0.27617533 1.94074861 0 0 Z " fill="#F7EFEF" transform="translate(275,85)"/>
<path d="M0 0 C1.94566951 3.47547073 2.07637127 5.12506344 1 9 C1.99 9.33 2.98 9.66 4 10 C3.51917969 10.38800781 3.03835938 10.77601562 2.54296875 11.17578125 C0.54250502 13.54088647 0.51123932 15.12691453 0.3125 18.1875 C0.24675781 19.08855469 0.18101562 19.98960938 0.11328125 20.91796875 C0.07589844 21.60503906 0.03851563 22.29210937 0 23 C-0.33 23 -0.66 23 -1 23 C-1.34179688 19.97265625 -1.34179688 19.97265625 -1.68359375 16.9453125 C-1.91292961 14.92595684 -1.91292961 14.92595684 -3 13 C-2.59149607 10.7775101 -2.10043112 8.56975897 -1.5625 6.375 C-1.27503906 5.18648437 -0.98757813 3.99796875 -0.69140625 2.7734375 C-0.46324219 1.85820313 -0.23507812 0.94296875 0 0 Z " fill="#DBD9DC" transform="translate(394,52)"/>
<path d="M0 0 C0.33 0 0.66 0 1 0 C1 1.98 1 3.96 1 6 C-3.29 6 -7.58 6 -12 6 C-8 2 -8 2 -5.859375 1.609375 C-3.90625 1.73958333 -1.953125 1.86979167 0 2 C0 1.34 0 0.68 0 0 Z " fill="#211426" transform="translate(366,89)"/>
<path d="M0 0 C1.32 0 2.64 0 4 0 C4.66 2.97 5.32 5.94 6 9 C3.03 8.505 3.03 8.505 0 8 C0 5.36 0 2.72 0 0 Z " fill="#221527" transform="translate(376,65)"/>
<path d="M0 0 C1.98 0 3.96 0 6 0 C6 1.98 6 3.96 6 6 C4.02 6 2.04 6 0 6 C0 4.02 0 2.04 0 0 Z " fill="#483D4C" transform="translate(375,57)"/>
<path d="M0 0 C1.65 0 3.3 0 5 0 C5 2.31 5 4.62 5 7 C3.35 7 1.7 7 0 7 C0 4.69 0 2.38 0 0 Z " fill="#2D2132" transform="translate(339,94)"/>
<path d="M0 0 C1.2065625 0.0309375 1.2065625 0.0309375 2.4375 0.0625 C2.4375 2.0425 2.4375 4.0225 2.4375 6.0625 C0.4575 6.0625 -1.5225 6.0625 -3.5625 6.0625 C-3.605221 4.39638095 -3.60313832 2.72867115 -3.5625 1.0625 C-2.5625 0.0625 -2.5625 0.0625 0 0 Z " fill="#3B3040" transform="translate(349.5625,56.9375)"/>
<path d="M0 0 C2 0.8125 2 0.8125 4 4.8125 C1.03 4.8125 -1.94 4.8125 -5 4.8125 C-4.67 3.4925 -4.34 2.1725 -4 0.8125 C-2 -0.1875 -2 -0.1875 0 0 Z " fill="#4D4351" transform="translate(336,87.1875)"/>
<path d="M0 0 C0.33 0 0.66 0 1 0 C1 2.31 1 4.62 1 7 C3.97 7.495 3.97 7.495 7 8 C7 8.33 7 8.66 7 9 C5.02 9 3.04 9 1 9 C1 12.96 1 16.92 1 21 C0.67 21 0.34 21 0 21 C-1.33257403 6.21867882 -1.33257403 6.21867882 0 0 Z " fill="#E1DFE1" transform="translate(345,94)"/>
<path d="M0 0 C2.0625 0.4375 2.0625 0.4375 4 1 C3.67 1.33 3.34 1.66 3 2 C3.99 2.33 4.98 2.66 6 3 C6.33 3.99 6.66 4.98 7 6 C4.36 6 1.72 6 -1 6 C-1.042721 4.33388095 -1.04063832 2.66617115 -1 1 C-0.67 0.67 -0.34 0.34 0 0 Z " fill="#291D2E" transform="translate(362,76)"/>
<path d="M0 0 C2.49710982 0.34442894 3.82154665 0.84703999 5.75 2.5 C7.62778619 6.25557239 7.23789619 9.87646606 7 14 C6.34 14 5.68 14 5 14 C4.83564453 12.98679687 4.83564453 12.98679687 4.66796875 11.953125 C4.50941406 11.06109375 4.35085938 10.1690625 4.1875 9.25 C3.96126953 7.92742187 3.96126953 7.92742187 3.73046875 6.578125 C2.94585752 3.8089089 1.85404641 2.1740599 0 0 Z " fill="#3F3444" transform="translate(410,61)"/>
<path d="M0 0 C0.33 0 0.66 0 1 0 C1.061875 0.78375 1.12375 1.5675 1.1875 2.375 C1.455625 3.24125 1.72375 4.1075 2 5 C4.47636012 6.37466625 4.47636012 6.37466625 7 7 C7 7.33 7 7.66 7 8 C5.35 8 3.7 8 2 8 C2 9.32 2 10.64 2 12 C1.34 12 0.68 12 0 12 C0 10.68 0 9.36 0 8 C-1.65 8 -3.3 8 -5 8 C-5 7.67 -5 7.34 -5 7 C-3.35 7 -1.7 7 0 7 C0 4.69 0 2.38 0 0 Z " fill="#ECEBED" transform="translate(366,57)"/>
<path d="M0 0 C0.33 0 0.66 0 1 0 C1 1.65 1 3.3 1 5 C0.34 5 -0.32 5 -1 5 C-1 5.99 -1 6.98 -1 8 C-2.32 8.33 -3.64 8.66 -5 9 C-5 7.02 -5 5.04 -5 3 C-4.01 3 -3.02 3 -2 3 C-1.34 2.01 -0.68 1.02 0 0 Z " fill="#211526" transform="translate(420,91)"/>
<path d="M0 0 C2.0625 0.4375 2.0625 0.4375 4 1 C4.33 2.32 4.66 3.64 5 5 C2.36 5 -0.28 5 -3 5 C-1.125 1.125 -1.125 1.125 0 0 Z " fill="#443948" transform="translate(346,87)"/>
<path d="M0 0 C0 0.99 0 1.98 0 3 C-1.27875 2.95875 -2.5575 2.9175 -3.875 2.875 C-6.01871492 2.75787127 -6.01871492 2.75787127 -8 3 C-8.66 3.66 -9.32 4.32 -10 5 C-10.99 4.67 -11.98 4.34 -13 4 C-9.41420832 -0.98892755 -5.61771415 -0.43213186 0 0 Z " fill="#E4E3E5" transform="translate(358,29)"/>
<path d="M0 0 C1.65 0 3.3 0 5 0 C5 1.98 5 3.96 5 6 C3.35 6 1.7 6 0 6 C0 4.02 0 2.04 0 0 Z " fill="#2F2334" transform="translate(383,57)"/>
<path d="M0 0 C1.65 0 3.3 0 5 0 C5 1.98 5 3.96 5 6 C3.35 6 1.7 6 0 6 C0 4.02 0 2.04 0 0 Z " fill="#322637" transform="translate(368,57)"/>
<path d="M0 0 C1.65 0 3.3 0 5 0 C5 1.98 5 3.96 5 6 C3.35 6 1.7 6 0 6 C0 4.02 0 2.04 0 0 Z " fill="#2E2233" transform="translate(361,57)"/>
<path d="M0 0 C1.65 0 3.3 0 5 0 C5 1.98 5 3.96 5 6 C3.35 6 1.7 6 0 6 C0 4.02 0 2.04 0 0 Z " fill="#312535" transform="translate(354,57)"/>
<path d="M0 0 C0.33 0 0.66 0 1 0 C1.50636607 1.74816858 2.00484619 3.49862263 2.5 5.25 C2.7784375 6.22453125 3.056875 7.1990625 3.34375 8.203125 C4 11 4 11 4 15 C3.34 15 2.68 15 2 15 C1.46706165 13.25364835 0.94909337 11.50272348 0.4375 9.75 C0.14746094 8.77546875 -0.14257812 7.8009375 -0.44140625 6.796875 C-0.99249836 4.03756068 -0.93789609 2.6087176 0 0 Z " fill="#DAD8DB" transform="translate(347,66)"/>
<path d="M0 0 C1.32 0 2.64 0 4 0 C2.6302836 3.99500618 0.74277578 6.80009492 -2 10 C-2.6875 8.375 -2.6875 8.375 -3 6 C-1.5625 2.75 -1.5625 2.75 0 0 Z " fill="#FC6A6A" transform="translate(70,72)"/>
<path d="M0 0 C0.33 0 0.66 0 1 0 C1 1.98 1 3.96 1 6 C2.65 6.33 4.3 6.66 6 7 C6 7.33 6 7.66 6 8 C4.35 8 2.7 8 1 8 C1 9.65 1 11.3 1 13 C0.34 13 -0.32 13 -1 13 C-0.67 8.71 -0.34 4.42 0 0 Z " fill="#DBD9DC" transform="translate(353,57)"/>
<path d="M0 0 C0.99 0 1.98 0 3 0 C2.67 2.31 2.34 4.62 2 7 C1.01 7 0.02 7 -1 7 C-1.625 4.625 -1.625 4.625 -2 2 C-1.34 1.34 -0.68 0.68 0 0 Z " fill="#F65858" transform="translate(65,79)"/>
<path d="M0 0 C0.33 0.66 0.66 1.32 1 2 C1.66 2 2.32 2 3 2 C1.25 7.75 1.25 7.75 -1 10 C-2.1875 8.375 -2.1875 8.375 -3 6 C-1.625 2.75 -1.625 2.75 0 0 Z " fill="#FC6C6C" transform="translate(151,71)"/>
<path d="M0 0 C1.32 0 2.64 0 4 0 C4 3.3 4 6.6 4 10 C3.34 8.68 2.68 7.36 2 6 C0.68 6.33 -0.64 6.66 -2 7 C-1.34 6.01 -0.68 5.02 0 4 C0 2.68 0 1.36 0 0 Z " fill="#3E3342" transform="translate(364,85)"/>
<path d="M0 0 C0.66 0 1.32 0 2 0 C2 1.98 2 3.96 2 6 C0.02 6 -1.96 6 -4 6 C-1.125 1.125 -1.125 1.125 0 0 Z " fill="#25192A" transform="translate(334,94)"/>
<path d="M0 0 C0.99 0.33 1.98 0.66 3 1 C3 2.65 3 4.3 3 6 C4.65 6.33 6.3 6.66 8 7 C8 7.33 8 7.66 8 8 C6.35 8 4.7 8 3 8 C2.67 8.99 2.34 9.98 2 11 C0.57741188 7.17679443 -0.24042276 4.08718695 0 0 Z " fill="#ECEBEC" transform="translate(344,57)"/>
<path d="M0 0 C1.32 0.33 2.64 0.66 4 1 C4 1.99 4 2.98 4 4 C4.66 4 5.32 4 6 4 C5.67 4.99 5.34 5.98 5 7 C4.01 6.67 3.02 6.34 2 6 C2 5.34 2 4.68 2 4 C1.34 4 0.68 4 0 4 C0 2.68 0 1.36 0 0 Z " fill="#211526" transform="translate(398,101)"/>
<path d="M0 0 C1.32 0.66 2.64 1.32 4 2 C4 2.99 4 3.98 4 5 C2.8553125 5.2165625 2.8553125 5.2165625 1.6875 5.4375 C-1.08172908 5.9632594 -1.08172908 5.9632594 -4 7 C-4 6.01 -4 5.02 -4 4 C-3.01 3.67 -2.02 3.34 -1 3 C-0.67 2.01 -0.34 1.02 0 0 Z " fill="#2A1E2F" transform="translate(358,87)"/>
<path d="M0 0 C-1.15173355 2.46800047 -2.04783565 4.04783565 -4 6 C-4.45811675 7.97235333 -4.45811675 7.97235333 -4.625 10.125 C-4.74875 11.40375 -4.8725 12.6825 -5 14 C-5.33 14 -5.66 14 -6 14 C-6.62674095 4.87743733 -6.62674095 4.87743733 -4.125 1.375 C-2 0 -2 0 0 0 Z " fill="#372B3C" transform="translate(400,61)"/>
<path d="M0 0 C0.66 0.66 1.32 1.32 2 2 C1.9765625 4.1640625 1.9765625 4.1640625 1.625 6.625 C1.51414062 7.44226563 1.40328125 8.25953125 1.2890625 9.1015625 C1.19367188 9.72804688 1.09828125 10.35453125 1 11 C0.67 11 0.34 11 0 11 C0 8.69 0 6.38 0 4 C-0.99 4.33 -1.98 4.66 -3 5 C-3.99 4.01 -4.98 3.02 -6 2 C-4.7934375 1.7834375 -4.7934375 1.7834375 -3.5625 1.5625 C-1.07896294 1.25864751 -1.07896294 1.25864751 0 0 Z " fill="#D3D1D4" transform="translate(353,84)"/>
<path d="M0 0 C0.33 0 0.66 0 1 0 C1 2.64 1 5.28 1 8 C2.32 8.66 3.64 9.32 5 10 C3.35 11.32 1.7 12.64 0 14 C0 9.38 0 4.76 0 0 Z " fill="#493F4D" transform="translate(375,65)"/>
<path d="M0 0 C0.66 1.32 1.32 2.64 2 4 C2.66 4 3.32 4 4 4 C4 4.66 4 5.32 4 6 C2 7.625 2 7.625 0 9 C-0.87890625 2.84765625 -0.87890625 2.84765625 -1 1 C-0.67 0.67 -0.34 0.34 0 0 Z " fill="#443948" transform="translate(337,50)"/>
<path d="M0 0 C0 2 0 2 -2.4375 4.5 C-3.283125 5.325 -4.12875 6.15 -5 7 C-5.33 7.66 -5.66 8.32 -6 9 C-6.66 9 -7.32 9 -8 9 C-7.53918323 4.85264908 -4.48412936 0 0 0 Z " fill="#D9D7DA" transform="translate(358,38)"/>
<path d="M0 0 C1.32 0.33 2.64 0.66 4 1 C4 4.96 4 8.92 4 13 C3.67 13 3.34 13 3 13 C3 11.35 3 9.7 3 8 C2.01 7.67 1.02 7.34 0 7 C0.66 6.67 1.32 6.34 2 6 C1.34 4.02 0.68 2.04 0 0 Z " fill="#F5F5F5" transform="translate(358,31)"/>
<path d="M0 0 C0.99 0.33 1.98 0.66 3 1 C2.67 2.65 2.34 4.3 2 6 C0.68 5.34 -0.64 4.68 -2 4 C-1.34 2.68 -0.68 1.36 0 0 Z " fill="#F55959" transform="translate(286,82)"/>
<path d="M0 0 C1.32 0.66 2.64 1.32 4 2 C3.67 3.65 3.34 5.3 3 7 C1.68 6.67 0.36 6.34 -1 6 C-1 5.34 -1 4.68 -1 4 C-0.34 4 0.32 4 1 4 C0.67 2.68 0.34 1.36 0 0 Z " fill="#241728" transform="translate(347,40)"/>
<path d="M0 0 C0.33 0 0.66 0 1 0 C1.33 2.31 1.66 4.62 2 7 C3.65 6.34 5.3 5.68 7 5 C7 5.66 7 6.32 7 7 C4.625 8.6875 4.625 8.6875 2 10 C1.34 9.67 0.68 9.34 0 9 C0 6.03 0 3.06 0 0 Z " fill="#B5B0B6" transform="translate(369,30)"/>
<path d="M0 0 C-0.75 1.9375 -0.75 1.9375 -2 4 C-4.125 4.75 -4.125 4.75 -6 5 C-6.33 3.35 -6.66 1.7 -7 0 C-2.25 -1.125 -2.25 -1.125 0 0 Z " fill="#231728" transform="translate(377,30)"/>
<path d="M0 0 C0.75 1.75 0.75 1.75 1 4 C-0.75 6.25 -0.75 6.25 -3 8 C-3.99 8 -4.98 8 -6 8 C-6 7.34 -6 6.68 -6 6 C-4.68 5.67 -3.36 5.34 -2 5 C-2 4.01 -2 3.02 -2 2 C-1.34 2 -0.68 2 0 2 C0 1.34 0 0.68 0 0 Z " fill="#332738" transform="translate(421,94)"/>
<path d="M0 0 C2 3 2 3 1.8125 5.5 C1 8 1 8 -2 11 C-1.34 7.37 -0.68 3.74 0 0 Z " fill="#FDD7D7" transform="translate(149,67)"/>
<path d="M0 0 C0.99 1.32 1.98 2.64 3 4 C-0.375 4.1875 -0.375 4.1875 -4 4 C-4.66 3.01 -5.32 2.02 -6 1 C-3.03 1.495 -3.03 1.495 0 2 C0 1.34 0 0.68 0 0 Z " fill="#332737" transform="translate(341,43)"/>
<path d="M0 0 C0.66 0.66 1.32 1.32 2 2 C1.96712417 4.72869407 1.43602229 7.2966618 1 10 C0.34 9.67 -0.32 9.34 -1 9 C-0.67 6.03 -0.34 3.06 0 0 Z " fill="#524856" transform="translate(389,63)"/>
<path d="M0 0 C1.98 0 3.96 0 6 0 C5.67 0.99 5.34 1.98 5 3 C2.9375 3.6875 2.9375 3.6875 1 4 C0.67 2.68 0.34 1.36 0 0 Z " fill="#211526" transform="translate(338,50)"/>
<path d="M0 0 C3.42353587 1.21480305 5.01180815 3.01771223 7 6 C6.01 6 5.02 6 4 6 C3.34 5.01 2.68 4.02 2 3 C-0.05003955 1.80767387 -0.05003955 1.80767387 -2 1 C-1.34 0.67 -0.68 0.34 0 0 Z " fill="#E4E2E4" transform="translate(366,74)"/>
<path d="M0 0 C1.65 1.32 3.3 2.64 5 4 C4 5 4 5 1.4375 5.0625 C0.2309375 5.0315625 0.2309375 5.0315625 -1 5 C-0.67 3.35 -0.34 1.7 0 0 Z " fill="#FA8181" transform="translate(57,39)"/>
<path d="M0 0 C0.33 1.32 0.66 2.64 1 4 C1.66 4 2.32 4 3 4 C2.67 6.64 2.34 9.28 2 12 C1.67 12 1.34 12 1 12 C0.01751476 7.9472484 -0.08159574 4.16138263 0 0 Z " fill="#E2E1E3" transform="translate(368,35)"/>
</svg>
